<svg xmlns="http://www.w3.org/2000/svg" viewBox="0 0 700 700" fill="black" stroke="none">
 <path d="m451.5 136.43c-26.395-10.379-61.492-15.863-101.5-15.863s-75.109 5.4844-101.5 15.863c-46.914 18.445-53.918 47.902-53.918 63.816 0 15.824 6.375 30.422 18.945 43.391 1.4844 1.5312 2.3125 3.5781 2.3125 5.7109v142.21c0 26.398 21.477 47.875 47.871 47.875h172.58c26.398 0 47.875-21.477 47.875-47.875l0.003907-142.21c0-2.1328 0.82812-4.1797 2.3125-5.7109 12.57-12.965 18.945-27.566 18.945-43.391-0.003906-15.914-7.0078-45.367-53.922-63.816zm11.414 84.371-9.2539 9.5469c-1.4844 1.5312-2.3125 3.5781-2.3125 5.7109v155.5c0 8.3047-6.7578 15.062-15.062 15.062h-172.58c-8.3047 0-15.059-6.7578-15.059-15.062v-155.5c0-2.1328-0.82813-4.1797-2.3125-5.7109l-9.2539-9.5469c-8.5898-8.8633-9.6914-15.637-9.6914-20.551 0-16.746 18.008-27.34 33.113-33.281 22.605-8.8906 53.555-13.59 89.496-13.59s66.887 4.6992 89.496 13.586c15.105 5.9414 33.113 16.539 33.113 33.281 0 4.918-1.1016 11.695-9.6914 20.559z"/>
</svg>
