<svg xmlns="http://www.w3.org/2000/svg" viewBox="0 0 700 700" fill="black" stroke="none">
 <g>
  <path d="m679.49 144.17-126.19-37.668c-2.668-0.82031-5.4688-1.2305-8.2031-1.2305-2.8008 0-5.6055 0.41406-8.2734 1.2305l-252.42 75.977c-12.133 3.6523-20.441 14.832-20.441 27.516v16.539l-66.445-20.68c-2.8008-0.85547-5.6758-1.3008-8.5117-1.3008-7.5195 0-14.832 2.9766-20.336 8.4414l-23.961 23.961c-9.4375 9.4375-11.145 24.066-4.1719 35.414l39.41 63.883-16.84-5.0156c-2.668-0.78516-5.4336-1.1953-8.2383-1.1953-2.7734 0-5.5352 0.41406-8.2031 1.1953l-126.15 37.695c-12.164 3.625-20.512 14.832-20.512 27.551v33.906c0 12.711 8.3359 23.926 20.512 27.551l126.15 37.668c2.7031 0.82031 5.4688 1.2305 8.2383 1.2305 2.7734 0 5.5352-0.41406 8.2031-1.2305l126.19-37.668c12.164-3.625 20.512-14.832 20.512-27.551v-2.1836l24.508 8.2031c3.0117 1.0234 6.082 1.5039 9.1641 1.5039 7.4844 0 14.832-2.9414 20.301-8.4062l18.594-18.523 28.266 8.4062c2.7383 0.82031 5.4688 1.2305 8.2734 1.2305 2.7383 0 5.5352-0.41406 8.2734-1.2305l252.39-76.012c12.102-3.625 20.441-14.797 20.441-27.516l-0.003907-144.15c-0.007812-12.711-8.3438-23.891-20.52-27.543zm-134.39-10.152 101.17 30.211-227.36 68.461-101.21-30.211zm-177.63 251.18-13.363 13.398-16.715-31.102-38.555-71.777 13.195-13.195 49.832 92.289zm-178.45-151.89 74.957 23.309 25.43 7.8945-12.34 12.34-13.09-4.0312-87.43-27zm-34.113 125.44 47.711 14.285 53.461 15.996-32.508 9.7734-68.672 20.645-101.16-30.418zm-126.19 52.703 111.84 33.699v18.66l-111.84-33.418zm252.38 18.941-111.84 33.426v-18.73l100.79-30.281 11.039-3.3516v18.938zm28.711-32.543v-1.3633c0-2.5977-0.41406-5.125-1.0586-7.5195-2.5625-9.4375-9.7422-17.086-19.445-20.027l-24.234-7.2461-43.75-13.055-44.844-72.773 87.5 27 7.2812 2.2539 21.461 39.957 5.8438 10.871 19.172 35.688 5.8438 10.871zm82.922-26.25-62.551-115.91c-3.5547-6.6289-9.5703-11.586-16.75-13.812l-20.715-6.4258v-10.457l111.84 33.398v129.2l-8.3359-2.5273c-0.070313-4.5781-1.1641-9.2266-3.4883-13.469zm278.56-55.75-238.02 71.68v-129.14l238.03-71.672v129.13z"/>
 </g>
</svg>
