<svg xmlns="http://www.w3.org/2000/svg" viewBox="0 0 700 700" fill="black" stroke="none">
  <path d="m429.52 153.44h-86.238c0-1.6797 0-3.3594-1.1211-4.4805l-11.199-18.48c-2.8008-4.4805-7.2812-7.8398-12.32-8.9609-5.0391-1.1211-10.641-0.55859-15.121 2.2383-9.5195 5.6016-12.879 17.922-7.2812 27.441l1.6797 2.8008h-28v23.52h-8.9609v239.12h8.3984v4.4805c0 10.641 8.9609 19.602 19.602 19.602h120.96c10.641 0 19.602-8.9609 19.602-19.602v-4.4805h8.3984l0.003906-239.68h-8.9609v-23.52zm-117.6-16.801c1.1211-0.55859 2.2383-0.55859 3.3594-0.55859s2.2383 1.1211 2.8008 1.6797l8.9609 15.121h-10.078l-6.7188-11.199c-1.125-1.125-0.56641-3.9219 1.6758-5.043zm-25.762 32.48h127.68v7.8398h-127.68zm135.52 47.039-143.36 67.762v-90.16h143.92l-0.003907 22.398zm0 78.398-143.36 67.762v-59.922l143.92-67.762-0.003907 59.922zm-8.3984 126c0 1.6797-1.1211 2.8008-2.8008 2.8008h-120.96c-1.6797 0-2.8008-1.1211-2.8008-2.8008v-4.4805h126.56zm-134.96-21.277v-18.48l143.92-67.762v85.68h-143.92z" />
</svg>
