<svg xmlns="http://www.w3.org/2000/svg" viewBox="0 0 700 700" fill="black" stroke="none">
 <g>
  <path d="m128.54 443.05h306.83c5.1602 0 9.332-4.1797 9.332-9.332 0-13.508 10.992-24.5 24.5-24.5 13.508 0 24.5 10.992 24.5 24.5 0 5.1562 4.1758 9.332 9.332 9.332h73.5c5.1602 0 9.332-4.1797 9.332-9.332v-186.67c0-0.10938-0.058593-0.19531-0.0625-0.30469-0.03125-0.95703-0.15625-1.9102-0.48438-2.832l-5.8711-16.453v-0.003906c-25.723-72.02-94.391-120.41-170.86-120.41h-1.2227c-1.3672 0-2.7266 0.30078-3.9648 0.88281l-99.148 46.465c-4.5312 2.125-6.582 7.4492-4.6406 12.066 0.875 2.082 1.3203 4.2969 1.3203 6.5859 0 9.3711-7.6211 16.996-16.988 16.996-6.2891 0-12.031-3.5352-14.984-9.2227-2.3047-4.4336-7.6836-6.293-12.25-4.1484l-132.13 61.926c-0.99609 0.46875-1.875 1.0977-2.6211 1.8398-0.054688 0.054688-0.082031 0.13281-0.13672 0.1875-0.72656 0.76172-1.3086 1.6328-1.7422 2.582-0.14453 0.31641-0.19141 0.66797-0.30078 1.0039-0.25 0.76562-0.42969 1.5352-0.47266 2.3477-0.007813 0.17188-0.097656 0.31641-0.097656 0.48828v52.5c0 5.1562 4.1758 9.332 9.332 9.332 13.508 0 24.5 10.992 24.5 24.5 0 13.508-10.992 24.5-24.5 24.5-5.1602 0-9.332 4.1797-9.332 9.332v66.5c0 5.1562 4.1758 9.3359 9.3359 9.3359zm129.02-246.15c6.6641 7.4414 16.18 11.816 26.395 11.816 19.66 0 35.656-15.996 35.656-35.66 0-1.7109-0.11719-3.3984-0.35547-5.0625l90.199-42.273c68.258 0.35938 129.45 43.676 152.43 108.02l1.4141 3.9766-392.85-0.003906zm-119.68 178.64c19.332-4.2734 33.832-21.551 33.832-42.152 0-20.598-14.5-37.875-33.832-42.152v-34.848h429.33v168h-55.844c-4.2852-19.332-21.555-33.832-42.156-33.832-20.598 0-37.871 14.5-42.156 33.832h-289.18z"/>
  <path d="m511.2 339.21c16.078 0 29.168-13.086 29.168-29.168s-13.09-29.168-29.168-29.168-29.168 13.086-29.168 29.168c0.003906 16.082 13.09 29.168 29.168 29.168zm0-39.668c5.7891 0 10.5 4.7109 10.5 10.5s-4.7109 10.5-10.5 10.5c-5.7891 0-10.5-4.7109-10.5-10.5s4.7148-10.5 10.5-10.5z"/>
  <path d="m380.54 331.05c-15.441 0-28 12.559-28 28s12.559 28 28 28 28-12.559 28-28-12.562-28-28-28zm0 37.332c-5.1484 0-9.332-4.1875-9.332-9.332s4.1836-9.332 9.332-9.332c5.1484 0 9.332 4.1875 9.332 9.332s-4.1836 9.332-9.332 9.332z"/>
  <path d="m256.98 291.38c-15.441 0-28 12.559-28 28s12.559 28 28 28c15.441 0 28-12.559 28-28s-12.559-28-28-28zm0 37.336c-5.1484 0-9.332-4.1875-9.332-9.332 0-5.1445 4.1836-9.332 9.332-9.332 5.1484 0 9.332 4.1875 9.332 9.332 0 5.1406-4.1836 9.332-9.332 9.332z"/>
  <path d="m204.78 349.71c-15.441 0-28 12.559-28 28s12.559 28 28 28 28-12.559 28-28-12.559-28-28-28zm0 37.332c-5.1484 0-9.332-4.1875-9.332-9.332 0-5.1445 4.1836-9.332 9.332-9.332 5.1484 0 9.332 4.1875 9.332 9.332 0 5.1445-4.1836 9.332-9.332 9.332z"/>
  <path d="m436.43 157.59c-15.441 0-28 12.559-28 28s12.559 28 28 28 28-12.559 28-28c0-15.438-12.559-28-28-28zm0 37.336c-5.1484 0-9.332-4.1875-9.332-9.332s4.1836-9.332 9.332-9.332c5.1484 0 9.332 4.1875 9.332 9.332 0 5.1406-4.1836 9.332-9.332 9.332z"/>
 </g>
</svg>
