<svg xmlns="http://www.w3.org/2000/svg" viewBox="0 0 700 700" fill="black" stroke="none">
 <g>
  <path d="m350 85.68c-79.52 0-147.28 133.28-147.28 241.92 0 93.52 53.762 147.28 147.28 147.28s147.28-53.762 147.28-147.28c0-52.078-16.238-112-43.121-159.6-29.121-52.641-67.199-82.32-104.16-82.32zm0 375.2c-49.84 0-133.28-17.359-133.28-133.28 0-49.84 15.121-106.96 40.879-152.88 26.879-47.602 60.48-75.039 92.398-75.039 31.922 0 65.52 27.441 92.398 75.039 25.762 45.922 40.879 103.04 41.441 152.88-0.55469 115.92-83.996 133.28-133.84 133.28z"/>
 </g>
</svg>
