<svg xmlns="http://www.w3.org/2000/svg" viewBox="0 0 700 700" fill="black" stroke="none">
 <g>
  <path d="m352.96 349.01c-2.4336-11.422-13.203-18.84-24.555-17.566 3.8594-4.582 6.2695-11.004 5.1172-19.547-0.625-4.5977-4.8086-7.8203-9.4453-7.207-4.5977 0.62109-7.8203 4.8477-7.2031 9.4453 0.67188 5-1.4336 7.4453-4.0156 8.6172-5.1875-2.8633-11.145-4.5-17.477-4.5-6.332 0-12.289 1.6367-17.48 4.5-2.582-1.1719-4.6836-3.6211-4.0117-8.6211 0.61719-4.5977-2.6016-8.8281-7.2031-9.4453-4.6484-0.61328-8.8281 2.6094-9.4453 7.207-1.1523 8.5391 1.2539 14.961 5.1094 19.539-5.1758-0.58984-10.352 0.50391-14.777 3.375-5.0469 3.2734-8.5156 8.3164-9.7656 14.195v0.003906c-0.53516 2.5117-0.61328 5.1562-0.21875 7.8633 0.35156 2.4375 1.75 4.5977 3.832 5.9102 2.3086 1.4531 4.7539 2.4648 7.2695 3.0039 1.5742 0.33203 3.1602 0.5 4.7344 0.5 2.2578 0 4.4844-0.36328 6.6328-1.0352 1.5039 10.258 4.6797 23.887 9.0781 35.828 1.2148 3.3047 4.3594 5.5 7.8789 5.5h36.723c3.5234 0 6.668-2.1953 7.8789-5.5 4.3984-11.949 7.5781-25.574 9.082-35.828 2.1484 0.67188 4.3789 1.0352 6.6367 1.0352 1.5742 0 3.1602-0.16797 4.7344-0.5 2.5-0.53125 4.9375-1.543 7.2578-2.9961 2.0898-1.3125 3.4961-3.4766 3.8438-5.918 0.39453-2.7031 0.31641-5.3516-0.21875-7.8633l0.007812 0.003907zm-45.203 40.77h-24.746c-4.6172-14.336-7.1367-29.359-7.1367-35.215 0-10.758 8.7539-19.512 19.512-19.512 10.758 0 19.512 8.7539 19.512 19.512 0 5.8516-2.5234 20.871-7.1406 35.215z"/>
  <path d="m208.55 537.6h278.64c4.6367 0 8.3984-3.7578 8.3984-8.3984v-347.2c0-0.09375-0.023437-0.17578-0.027344-0.26953-0.007812-0.30078-0.046874-0.59375-0.089843-0.88672-0.035157-0.26562-0.070313-0.53125-0.13281-0.79688-0.058594-0.25-0.14453-0.49219-0.22656-0.73438-0.097656-0.28906-0.19922-0.57812-0.33203-0.85938-0.039062-0.082031-0.054687-0.16406-0.09375-0.24219l-50.016-99.016v-48.398c0-4.6406-3.7617-8.3984-8.3984-8.3984l-172.56-0.003906c-4.6367 0-8.3984 3.7578-8.3984 8.3984v46.297c-0.027343 0.050781-0.070312 0.085938-0.097656 0.13672l-54.035 100.8c-0.011719 0.023438-0.015625 0.046875-0.023438 0.066406-0.625 1.1719-1.0078 2.4844-1.0078 3.9023v347.2c0 4.6406 3.7617 8.4023 8.3984 8.4023zm152.86-16.801h-144.46v-330.4h156.86v330.4zm117.39 0h-88.191v-330.4h88.191zm-5.2539-347.2h-77.27l39.781-74.207zm-201.43-134.4h155.76v33.602h-155.76zm-4.4688 50.402h154.6l-45.031 84h-154.6z"/>
 </g>
</svg>
