<svg xmlns="http://www.w3.org/2000/svg" viewBox="0 0 700 700" fill="black" stroke="none">
  <path d="m567.79 62.211c-27.457-28.578-65.371-44.73-105-44.73-39.629 0-77.547 16.152-105 44.73l-223.12 222.69c-28.25 27.785-44.438 65.562-45.078 105.18-0.63672 39.617 14.328 77.895 41.664 106.57 27.602 28.82 65.625 45.34 105.52 45.852h0.70312c39.551-0.26172 77.359-16.328 105-44.625l225.31-216.21c28.543-29.395 44.508-68.754 44.508-109.73s-15.965-80.332-44.508-109.73zm-114.54 282.28-176.05-159.34 101.5-101.5c25.152-24.914 60.078-37.367 95.32-33.984 35.242 3.3789 67.16 22.242 87.117 51.484 15.148 23.547 21.68 51.609 18.488 79.426-3.1875 27.812-15.906 53.668-35.988 73.176z" />
</svg>
