<svg xmlns="http://www.w3.org/2000/svg" viewBox="0 0 700 700" fill="black" stroke="none">
  <path xmlns="http://www.w3.org/2000/svg" d="m477.46 197.3-39.961-59.93v-23.625c4.6406 0 9.0938-1.8438 12.375-5.125s5.125-7.7344 5.125-12.375v-35c0.015625-1.3555-0.28516-2.6914-0.875-3.9102l-2.9922-5.9766c-5.0625-10.207-12.879-18.789-22.57-24.773s-20.867-9.1328-32.258-9.0898h-92.609c-11.383-0.035156-22.547 3.1172-32.23 9.1016-9.6836 5.9844-17.496 14.562-22.555 24.762l-2.9922 5.9766c-0.60547 1.2148-0.91797 2.5547-0.91797 3.9102v35c0 4.6406 1.8438 9.0938 5.125 12.375s7.7344 5.125 12.375 5.125v23.625l-39.961 59.953c-8.3242 12.469-11.781 27.559-9.7109 42.406l38.922 280.15h-0.003906c0.89453 6.2617 4.0117 11.992 8.7812 16.145 4.7734 4.1562 10.879 6.4531 17.207 6.4727h144.53c6.3281-0.019531 12.438-2.3203 17.211-6.4766 4.7734-4.1562 7.8867-9.8945 8.7773-16.16l38.918-280.11c2.082-14.859-1.375-29.969-9.7109-42.445zm-214.96-133.99 2.0664-4.1289v-0.003906c3.6094-7.2812 9.1914-13.41 16.105-17.684 6.918-4.2734 14.895-6.5273 23.023-6.5h92.609c8.1289-0.027344 16.105 2.2266 23.023 6.5 6.9141 4.2734 12.496 10.402 16.105 17.684l2.0664 4.1328v32.934h-175zm157.5 50.434v17.5h-140v-17.5zm49.875 123.55-38.945 280.16c-0.60156 4.3242-4.3008 7.543-8.6641 7.543h-144.53c-4.3672-0.003906-8.0664-3.2266-8.6641-7.5508l-38.945-280.15c-1.4727-10.605 0.99609-21.387 6.9375-30.293l38.867-58.258h148.14l38.809 58.258c5.9648 8.8984 8.4531 19.68 7 30.293z"/>
</svg>
