<svg xmlns="http://www.w3.org/2000/svg" viewBox="0 0 700 700" fill="black" stroke="none">
 <path d="m457.26 26.305c-58.203 0-108.65 34.273-132.23 83.695-8.9062-2.25-17.973-3.2422-26.953-3.043-34.164 0.76172-67.105 18.82-85.449 50.582l-11.027 19.094-4.4414-2.5469c-8.4492-4.8789-19.559-1.918-24.438 6.5469l-12.938 22.41c-4.8789 8.4492-1.918 19.555 6.5469 24.43l184.13 106.3c8.4492 4.875 19.559 1.918 24.438-6.5469l12.938-22.41c4.8789-8.4492 1.918-19.555-6.5469-24.434l-4.4414-2.5781 11.023-19.094c20.562-35.605 17.027-78.492-5.5508-109.8 9.8945-32.074 39.094-54.84 74.941-54.84 44.246 0 78.723 34.477 78.723 78.711v352.17l0.007812 0.003907c0 4.8281 3.9141 8.7461 8.7461 8.7461h50.27c4.832 0 8.7461-3.918 8.7461-8.7461v-352.17c0-80.625-65.852-146.47-146.49-146.47zm0 17.492c71.129 0 128.99 57.855 128.99 128.97v343.42h-32.777v-343.42c0-53.457-42.754-96.203-96.219-96.203-39.66 0-73.344 23.48-88.059 57.477-4.0234-3.7344-8.3984-7.1836-13.113-10.297-1.7188-1.125-3.457-2.2148-5.25-3.2422-0.66016-0.36328-1.2891-0.72656-1.9492-1.0898-2.3789-1.3242-4.7891-2.5117-7.2227-3.6016 21.09-42.57 64.941-72.004 115.59-72.004zm-157.5 80.516c8.5859-0.03125 17.254 1.2578 25.711 3.9727 0.49219 0.29297 1.0117 0.53516 1.5547 0.72656 4.6523 1.5859 9.1094 3.4062 13.344 5.6875 0.5625 0.33203 1.1562 0.62891 1.7188 0.95703 1.8828 1.0898 3.6914 2.2148 5.4492 3.4219 0.027343 0.019531 0 0 0 0 0.027343 0.019531 0 0 0 0 7.0273 4.832 13.078 10.578 18.16 16.98v0.003906c0.23828 0.28906 0.49219 0.56641 0.76172 0.82422 20.172 26.02 23.672 62.488 6.0859 92.945l-11.027 19.094-144.94-83.672 11.027-19.094c15.258-26.426 42.379-41.367 70.602-41.949 0.46484-0.011719 0.92578-0.015626 1.3867-0.015626zm-111.64 64.781c0-0.003906 0 0 0.33203 0l184.13 106.3c0.33203 0.33203 0.33203 0.33203 0 0.52734l-12.938 22.406c-0.33203 0.33203-0.33203 0.33203-0.52734 0l-184.13-106.29c-0.33203-0.33203-0.33203-0.33203 0-0.52734l12.938-22.41c0-0.33203 0-0.33203 0.33203-0.33203zm-3.9766 77.539c-2.2734 0.066407-4.4297 1.0156-6.0156 2.6445l-25.492 25.488v0.003906c-1.6641 1.6328-2.6055 3.8672-2.6172 6.1992-0.007812 2.3359 0.91406 4.5742 2.5625 6.2266 1.6523 1.6484 3.8906 2.5703 6.2266 2.5625 2.332-0.011718 4.5664-0.95312 6.2031-2.6172l25.492-25.488c2.5859-2.5156 3.3672-6.3633 1.9609-9.6875-1.4102-3.3242-4.7109-5.4414-8.3203-5.3359zm59.047 31.68v0.003906c-3.1953-0.027344-6.1523 1.6875-7.7148 4.4805l-18.027 31.219h0.003906c-1.1836 2.0078-1.5156 4.4102-0.92188 6.6641 0.59375 2.2578 2.0625 4.1836 4.0859 5.3516 2.0195 1.1641 4.4219 1.4766 6.6758 0.86328 2.25-0.61328 4.1641-2.1016 5.3125-4.1328l18.027-31.219c1.6016-2.6914 1.6445-6.0352 0.10938-8.7656-1.5352-2.7344-4.418-4.4336-7.5508-4.4609zm-112.82 22.082 0.003906 0.003907c-2.2734 0.066406-4.4297 1.0156-6.0156 2.6445l-25.492 25.492c-1.6641 1.6367-2.6055 3.8672-2.6172 6.2031-0.011719 2.332 0.91406 4.5742 2.5625 6.2227 1.6484 1.6523 3.8906 2.5742 6.2266 2.5625 2.332-0.007813 4.5664-0.95313 6.1992-2.6172l25.492-25.492c2.5859-2.5156 3.3633-6.3594 1.957-9.6836-1.4062-3.3203-4.707-5.4375-8.3125-5.332zm169.95 12.926v0.003907c-4.1523-0.19531-7.8672 2.5586-8.8906 6.5898l-9.3281 34.82c-0.60547 2.2422-0.29297 4.6328 0.86719 6.6445 1.1602 2.0117 3.0742 3.4805 5.3164 4.082 2.2422 0.60156 4.6328 0.28516 6.6406-0.87891 2.0117-1.1602 3.4766-3.0742 4.0781-5.3164l9.3281-34.82c0.72656-2.5703 0.24219-5.3281-1.3164-7.4961-1.5625-2.168-4.0273-3.5039-6.6953-3.625zm-95.152 30.84c-3.1953-0.027344-6.1523 1.6953-7.7109 4.4844l-18.027 31.215h0.003906c-1.2188 2.0117-1.5742 4.4297-0.98828 6.7031 0.58594 2.2773 2.0625 4.2227 4.0977 5.3984 2.0391 1.1758 4.4609 1.4844 6.7266 0.85156 2.2617-0.62891 4.1797-2.1445 5.3125-4.2031l18.027-31.215c1.6055-2.6953 1.6484-6.0391 0.11328-8.7734-1.5391-2.7305-4.418-4.4336-7.5547-4.4609zm75.473 42.605c-4.1523-0.19531-7.8672 2.5625-8.8906 6.5938l-9.332 34.82h0.003906c-0.64453 2.2539-0.35938 4.6758 0.79688 6.7148 1.1562 2.043 3.082 3.5352 5.3477 4.1406 2.2656 0.60938 4.6836 0.28125 6.7031-0.91016 2.0234-1.1875 3.4805-3.1406 4.0508-5.418l9.332-34.82c0.72656-2.5664 0.23828-5.3281-1.3203-7.4922-1.5586-2.168-4.0234-3.5039-6.6914-3.6289z"/>
</svg>
