<svg xmlns="http://www.w3.org/2000/svg" viewBox="0 0 700 700" fill="black" stroke="none">
 <g>
  <path d="m272.28 361.32c-3.4336-1.5234-7.1914-0.50391-10.512 0.39062-1.4727 0.39844-2.8555 0.77344-4.1328 0.91406-4.9766 0.62891-9.2344 0.94141-12.656 0.94141h-11.324l-0.33594 0.16797c-0.375 0.18359-0.97266 0.23047-1.4688 0.14062 2.4141-2.6133 4.2227-5.6719 5.9766-8.6445 1.1484-1.9492 2.3398-3.9648 3.7305-5.8789 1.4102-2.2188 2.9336-4.207 4.4141-6.1328 1.9492-2.543 3.9609-5.168 5.6406-8.2422 1.4961-2.7812 2.6211-5.4766 3.7109-8.0859 1.4062-3.3672 2.7383-6.5508 4.7617-9.8398 2.9102-4.1602 6.1719-9.2695 8.293-15.637 0.15625-0.46484 0.32422-0.92969 0.49219-1.3945 0.89062-2.4766 1.9023-5.2734 0.89453-8.2891-4.4258-10.613-27.125-8.9023-42.145-7.7734-3.3359 0.25391-6.2227 0.46875-8.0938 0.46875-2.4766 0-5.4766-0.19531-8.6523-0.41016-13.203-0.86719-31.293-2.0625-35.211 10.176-0.93359 2.9062-0.67188 6.6797-0.375 8.4883-0.42188 3.5234-0.93359 8.6953 3.4727 12.297 2.7109 2.2617 6.6602 2.6484 10.137 2.9844 0.72266 0.074219 1.4297 0.14062 2.3008 0.23438 9.9414 0 11.469 0 19.992-0.47656h11c-3.2266 4.2188-6.1602 8.7422-9.0117 13.137-2.2734 3.5039-4.625 7.1289-7.1016 10.555-1.832 2.6758-4.1836 5.4023-6.6758 8.2891-5.9258 6.8711-12.051 13.973-13.105 22.367-0.5 3.5-0.035157 9.8008 0.46094 12.125 0 7.2422 0.35938 10.82 2.4766 12.906 2.2383 2.207 5.7891 2.1562 12.207 2.0547l1.9648-0.027344c6.1328-0.078125 12.27-0.050782 18.402-0.023438 6.707 0.027344 13.25 0.050782 20.77 0.49219 4.25 0.25391 8.5742 0.50781 12.789 0.50781 4.2617 0 8.4102-0.26172 12.281-1.0547 11.027-2.25 10.93-9.2734 10.824-17.406-0.011719-0.86719-0.023438-1.7695-0.023438-2.6992 0-0.64453 0.027344-1.3711 0.054688-2.1562 0.19531-5.0625 0.50781-13.555-6.2227-15.465z"/>
  <path d="m393.96 289.77c-3.4336-1.5234-7.1914-0.50781-10.512 0.39062-1.4727 0.39844-2.8555 0.77344-4.1328 0.91406-4.9766 0.62109-9.2344 0.94141-12.656 0.94141h-11.324l-0.33594 0.16797c-0.375 0.18359-0.97266 0.23047-1.4688 0.14062 2.4141-2.6133 4.2227-5.6719 5.9766-8.6445 1.1484-1.9492 2.3398-3.9648 3.7305-5.8867 1.4102-2.2188 2.9336-4.207 4.4141-6.1328 1.9492-2.543 3.9609-5.168 5.6406-8.2422 1.4961-2.7812 2.6211-5.4766 3.7109-8.0859 1.4062-3.3711 2.7383-6.5508 4.7617-9.8398 2.9102-4.1602 6.1719-9.2695 8.293-15.637 0.15625-0.46484 0.32422-0.92969 0.49219-1.3945 0.89062-2.4766 1.9023-5.2734 0.89453-8.2891-4.4258-10.613-27.125-8.9023-42.145-7.7734-3.3359 0.25391-6.2227 0.46875-8.0938 0.46875-2.4766 0-5.4766-0.19531-8.6523-0.40234-13.203-0.86719-31.293-2.0625-35.211 10.176-0.93359 2.9062-0.67188 6.6797-0.375 8.4883-0.42188 3.5234-0.93359 8.6953 3.4727 12.297 2.7109 2.2617 6.6602 2.6484 10.137 2.9844 0.72266 0.074219 1.4297 0.14063 2.3008 0.23438 9.9414 0 11.469 0 19.992-0.47656h11c-3.2266 4.2188-6.1602 8.7422-9.0117 13.137-2.2734 3.5039-4.625 7.1289-7.1016 10.555-1.832 2.6758-4.1836 5.4023-6.6758 8.2891-5.9258 6.8711-12.051 13.973-13.105 22.367-0.5 3.5-0.035157 9.8008 0.46094 12.125 0 7.2422 0.35938 10.82 2.4766 12.906 2.2383 2.207 5.7891 2.1562 12.207 2.0547l1.9648-0.027344c6.1328-0.078125 12.27-0.050781 18.402-0.023437 6.707 0.027343 13.25 0.050781 20.77 0.49219 4.25 0.25391 8.5742 0.50781 12.789 0.50781 4.2617 0 8.4102-0.26172 12.281-1.0547 11.027-2.25 10.93-9.2734 10.824-17.406-0.011719-0.86719-0.023438-1.7695-0.023438-2.6992 0-0.64453 0.027344-1.3711 0.054688-2.1562 0.19531-5.0664 0.50391-13.562-6.2227-15.465z"/>
  <path d="m518.68 238.12c-3.4336-1.5234-7.1914-0.50391-10.512 0.39062-1.4727 0.39844-2.8555 0.77344-4.1328 0.91406-4.9766 0.62891-9.2344 0.94141-12.656 0.94141h-11.324l-0.33594 0.16797c-0.375 0.18359-0.97266 0.23047-1.4688 0.14062 2.4141-2.6133 4.2227-5.6719 5.9766-8.6445 1.1484-1.9492 2.3398-3.9648 3.7305-5.8789 1.4102-2.2188 2.9336-4.207 4.4141-6.1328 1.9492-2.543 3.9609-5.168 5.6406-8.2422 1.4961-2.7812 2.6211-5.4766 3.7109-8.0859 1.4062-3.3672 2.7383-6.5508 4.7617-9.8398 2.9102-4.1602 6.1719-9.2695 8.293-15.637 0.15625-0.46484 0.32422-0.92969 0.49219-1.3945 0.89062-2.4766 1.9023-5.2734 0.89453-8.2891-4.4258-10.613-27.125-8.9023-42.145-7.7734-3.3359 0.25391-6.2227 0.46875-8.0938 0.46875-2.4766 0-5.4766-0.19531-8.6523-0.41016-13.203-0.86719-31.293-2.0625-35.211 10.176-0.93359 2.9062-0.67188 6.6797-0.375 8.4883-0.42188 3.5234-0.93359 8.6953 3.4727 12.297 2.7109 2.2617 6.6602 2.6484 10.137 2.9844 0.72266 0.074219 1.4297 0.14063 2.3008 0.23438 9.9414 0 11.469 0 19.992-0.47656h11c-3.2266 4.2188-6.1602 8.7422-9.0117 13.137-2.2734 3.5039-4.625 7.1289-7.1016 10.555-1.832 2.6758-4.1836 5.4023-6.6758 8.2891-5.9258 6.8711-12.051 13.973-13.105 22.367-0.5 3.5-0.035156 9.8008 0.46094 12.125 0 7.2422 0.35938 10.82 2.4766 12.906 2.2383 2.207 5.7891 2.1562 12.207 2.0547l1.9648-0.027344c6.1328-0.078125 12.27-0.050781 18.402-0.023437 6.707 0.027343 13.25 0.050781 20.77 0.49219 4.25 0.25391 8.5742 0.50781 12.789 0.50781 4.2617 0 8.4102-0.26172 12.281-1.0547 11.027-2.25 10.93-9.2734 10.824-17.406-0.011719-0.86719-0.023438-1.7695-0.023438-2.6992 0-0.64453 0.027344-1.3711 0.054688-2.1562 0.19531-5.0664 0.51172-13.555-6.2227-15.465z"/>
 </g>
</svg>
