<svg xmlns="http://www.w3.org/2000/svg" viewBox="0 0 700 700" fill="black" stroke="none">
 <g>
  <path d="m319.76 168c0 20.723-16.801 37.52-37.523 37.52-20.719 0-37.52-16.797-37.52-37.52s16.801-37.52 37.52-37.52c20.723 0 37.523 16.797 37.523 37.52"/>
  <path d="m455.28 168c0 20.723-16.801 37.52-37.52 37.52-20.723 0-37.523-16.797-37.523-37.52s16.801-37.52 37.523-37.52c20.719 0 37.52 16.797 37.52 37.52"/>
  <path d="m391.44 255.36c-8.9609 10.078-24.641 16.238-41.441 16.238s-32.48-6.1602-41.441-16.238c-8.9609-10.078-24.078-11.199-34.16-2.2383-10.078 8.9609-11.199 24.078-2.2383 34.16 18.48 20.719 46.48 32.48 77.84 32.48 30.801 0 59.359-11.762 77.281-32.48 8.9609-10.078 7.8398-25.199-2.2383-34.16-9.5234-8.4023-24.645-7.2812-33.602 2.2383z"/>
  <path d="m533.68 49.84c-47.039-39.762-112.56-46.48-183.68-19.602-71.121-26.879-136.64-20.16-183.68 19.602-47.039 39.199-68.879 105.28-56.559 173.04 5.0391 28 16.238 54.32 34.16 81.762 12.879 19.602 20.719 40.879 21.84 62.16 6.7188 92.398 12.879 179.76 84.559 179.76 68.32 0 86.801-79.52 94.641-113.68l1.6797-7.8398c0-1.1211 0.55859-2.2383 3.3594-2.2383s3.3594 1.6797 3.3594 2.8008l1.6797 7.2812c7.8398 34.16 26.32 113.68 94.641 113.68 71.68 0 77.84-87.359 84.559-179.76 1.6797-20.719 8.9609-42.559 21.84-62.16 17.922-27.441 29.121-54.32 34.16-81.762 12.32-67.762-8.957-133.84-56.559-173.04zm9.5195 164.08c-3.9219 21.281-12.879 42-26.879 63.84-17.359 26.32-28 56-29.68 85.121-5.0391 69.441-9.5195 134.96-36.398 134.96-26.32 0-38.641-38.641-47.602-76.16l-2.2422-8.9648c-5.6016-23.52-25.762-38.641-50.398-38.641-24.078 0-44.238 15.68-50.398 40.32l-1.6797 7.2812c-8.3984 37.52-21.281 76.16-47.602 76.16-26.879 0-31.359-65.52-36.398-134.96-2.2383-29.121-12.32-58.801-29.68-85.121-14.559-21.84-22.961-42.559-26.879-63.84-8.9609-50.398 6.1602-99.121 39.762-127.12s81.762-31.922 136.08-11.199c11.199 3.9219 23.52 3.9219 34.16 0 54.32-20.719 102.48-16.238 136.08 11.762 33.598 27.441 48.719 76.16 39.758 126.56z"/>
 </g>
</svg>
