<svg xmlns="http://www.w3.org/2000/svg" viewBox="0 0 700 700" fill="black" stroke="none">
  <path xmlns="http://www.w3.org/2000/svg" d="m349.3 56.008c-4.5898 0.21484-8.8906 2.3047-11.902 5.7734-70.75 81.191-138.6 177.62-138.6 271.25 0 93.055 66.605 170.98 151.2 170.98 84.598 0 151.2-77.918 151.2-170.98 0-93.633-67.852-190.05-138.6-271.25h0.003906c-3.332-3.8398-8.2227-5.9609-13.301-5.7773zm0.69922 43.574c63.344 75.582 117.6 161.72 117.6 233.45 0 77.211-53.828 137.38-117.6 137.38s-117.6-60.164-117.6-137.38c0-71.73 54.258-157.87 117.6-233.45zm-85.574 212.1v-0.003906c-4.1602 0.12109-8.1289 1.7812-11.137 4.6562-3.0039 2.8789-4.8359 6.7695-5.1406 10.918-3.5039 38.945 14.18 80.539 43.926 102.2v0.003906c3.582 2.8672 8.1797 4.1484 12.73 3.5391 4.5469-0.60547 8.6484-3.0469 11.352-6.7539 2.7031-3.707 3.7734-8.3594 2.9609-12.879-0.8125-4.5156-3.4414-8.5-7.2656-11.031-16.164-11.77-32.504-47.309-30.273-72.102h-0.003906c0.50391-4.8125-1.0898-9.6055-4.3711-13.16-3.2852-3.5508-7.9414-5.5156-12.777-5.3906z"/>
</svg>
