solid OpenSCAD_Model
  facet normal 0.854031 0.0897645 0.512419
    outer loop
      vertex 55.9011 11.8822 0
      vertex 19.05 0 63.5
      vertex 57.15 0 0
    endloop
  endfacet
  facet normal 0.638158 -0.574614 0.512419
    outer loop
      vertex 15.4118 -11.1973 63.5
      vertex 12.7469 -14.1569 63.5
      vertex 38.2408 -42.4707 0
    endloop
  endfacet
  facet normal -0.638158 -0.574614 0.512419
    outer loop
      vertex -15.4118 -11.1973 63.5
      vertex -38.2408 -42.4707 0
      vertex -12.7469 -14.1569 63.5
    endloop
  endfacet
  facet normal -0.638158 0.574614 0.512419
    outer loop
      vertex -12.7469 14.1569 63.5
      vertex -38.2408 42.4707 0
      vertex -15.4118 11.1973 63.5
    endloop
  endfacet
  facet normal -0.743693 -0.429358 0.512418
    outer loop
      vertex -17.403 -7.74833 63.5
      vertex -46.2353 -33.5919 0
      vertex -15.4118 -11.1973 63.5
    endloop
  endfacet
  facet normal 0.349277 0.784495 0.512419
    outer loop
      vertex 17.6603 54.3529 0
      vertex 9.525 16.4978 63.5
      vertex 28.575 49.4934 0
    endloop
  endfacet
  facet normal 0.349271 0.784497 0.51242
    outer loop
      vertex 17.6603 54.3529 0
      vertex 5.88677 18.1176 63.5
      vertex 9.525 16.4978 63.5
    endloop
  endfacet
  facet normal 0.638165 -0.574606 0.512418
    outer loop
      vertex 46.2353 -33.5919 0
      vertex 15.4118 -11.1973 63.5
      vertex 38.2408 -42.4707 0
    endloop
  endfacet
  facet normal -0.743686 0.429369 0.512419
    outer loop
      vertex -46.2353 33.5919 0
      vertex -52.2091 23.245 0
      vertex -17.403 7.74833 63.5
    endloop
  endfacet
  facet normal -0.178538 -0.839971 0.512419
    outer loop
      vertex -5.88677 -18.1176 63.5
      vertex -17.6603 -54.3529 0
      vertex -1.99127 -18.9456 63.5
    endloop
  endfacet
  facet normal 0.504756 0.694729 0.512419
    outer loop
      vertex 28.575 49.4934 0
      vertex 9.525 16.4978 63.5
      vertex 38.2408 42.4707 0
    endloop
  endfacet
  facet normal 0.178538 -0.839971 0.512419
    outer loop
      vertex 17.6603 -54.3529 0
      vertex 1.99127 -18.9456 63.5
      vertex 5.9738 -56.8369 0
    endloop
  endfacet
  facet normal -0.743686 -0.429369 0.512419
    outer loop
      vertex -17.403 -7.74833 63.5
      vertex -52.2091 -23.245 0
      vertex -46.2353 -33.5919 0
    endloop
  endfacet
  facet normal -0.504756 -0.694729 0.512419
    outer loop
      vertex -9.525 -16.4978 63.5
      vertex -38.2408 -42.4707 0
      vertex -28.575 -49.4934 0
    endloop
  endfacet
  facet normal 0.178538 0.839971 0.512419
    outer loop
      vertex 5.9738 56.8369 0
      vertex 1.99127 18.9456 63.5
      vertex 17.6603 54.3529 0
    endloop
  endfacet
  facet normal 0.816706 0.265364 0.512419
    outer loop
      vertex 52.2091 23.245 0
      vertex 17.403 7.74833 63.5
      vertex 55.9011 11.8822 0
    endloop
  endfacet
  facet normal -0.743693 0.429358 0.512418
    outer loop
      vertex -15.4118 11.1973 63.5
      vertex -46.2353 33.5919 0
      vertex -17.403 7.74833 63.5
    endloop
  endfacet
  facet normal 0.504759 -0.694726 0.512419
    outer loop
      vertex 12.7469 -14.1569 63.5
      vertex 9.525 -16.4978 63.5
      vertex 38.2408 -42.4707 0
    endloop
  endfacet
  facet normal -0.854031 0.0897645 0.512419
    outer loop
      vertex -55.9011 11.8822 0
      vertex -57.15 0 0
      vertex -19.05 0 63.5
    endloop
  endfacet
  facet normal 0.743693 -0.429358 0.512418
    outer loop
      vertex 17.403 -7.74833 63.5
      vertex 15.4118 -11.1973 63.5
      vertex 46.2353 -33.5919 0
    endloop
  endfacet
  facet normal 0 0 -1
    outer loop
      vertex 10 0 0
      vertex 57.15 0 0
      vertex 55.9011 -11.8822 0
    endloop
  endfacet
  facet normal 0 0 -1
    outer loop
      vertex 9.78148 -2.07912 0
      vertex 55.9011 -11.8822 0
      vertex 52.2091 -23.245 0
    endloop
  endfacet
  facet normal 0 0 -1
    outer loop
      vertex 57.15 0 0
      vertex 10 0 0
      vertex 55.9011 11.8822 0
    endloop
  endfacet
  facet normal 0 0 -1
    outer loop
      vertex 9.13545 -4.06737 0
      vertex 52.2091 -23.245 0
      vertex 46.2353 -33.5919 0
    endloop
  endfacet
  facet normal 0 0 -1
    outer loop
      vertex 9.78148 2.07912 0
      vertex 55.9011 11.8822 0
      vertex 10 0 0
    endloop
  endfacet
  facet normal 0 0 -1
    outer loop
      vertex 8.09017 -5.87785 0
      vertex 46.2353 -33.5919 0
      vertex 38.2408 -42.4707 0
    endloop
  endfacet
  facet normal -0 0 -1
    outer loop
      vertex 55.9011 11.8822 0
      vertex 9.78148 2.07912 0
      vertex 52.2091 23.245 0
    endloop
  endfacet
  facet normal 0 0 -1
    outer loop
      vertex 6.69131 -7.43145 0
      vertex 38.2408 -42.4707 0
      vertex 28.575 -49.4934 0
    endloop
  endfacet
  facet normal 0 0 -1
    outer loop
      vertex 9.13545 4.06737 0
      vertex 52.2091 23.245 0
      vertex 9.78148 2.07912 0
    endloop
  endfacet
  facet normal 0 0 -1
    outer loop
      vertex 5 -8.66025 0
      vertex 28.575 -49.4934 0
      vertex 17.6603 -54.3529 0
    endloop
  endfacet
  facet normal -0 0 -1
    outer loop
      vertex 52.2091 23.245 0
      vertex 9.13545 4.06737 0
      vertex 46.2353 33.5919 0
    endloop
  endfacet
  facet normal 0 0 -1
    outer loop
      vertex 8.09017 5.87785 0
      vertex 46.2353 33.5919 0
      vertex 9.13545 4.06737 0
    endloop
  endfacet
  facet normal 0 0 -1
    outer loop
      vertex 55.9011 -11.8822 0
      vertex 9.78148 -2.07912 0
      vertex 10 0 0
    endloop
  endfacet
  facet normal 0 0 -1
    outer loop
      vertex 52.2091 -23.245 0
      vertex 9.13545 -4.06737 0
      vertex 9.78148 -2.07912 0
    endloop
  endfacet
  facet normal 0 0 -1
    outer loop
      vertex 46.2353 -33.5919 0
      vertex 8.09017 -5.87785 0
      vertex 9.13545 -4.06737 0
    endloop
  endfacet
  facet normal 0 0 -1
    outer loop
      vertex 38.2408 -42.4707 0
      vertex 6.69131 -7.43145 0
      vertex 8.09017 -5.87785 0
    endloop
  endfacet
  facet normal 0 0 -1
    outer loop
      vertex 3.09017 -9.51056 0
      vertex 17.6603 -54.3529 0
      vertex 5.9738 -56.8369 0
    endloop
  endfacet
  facet normal 0 0 -1
    outer loop
      vertex 28.575 -49.4934 0
      vertex 5 -8.66025 0
      vertex 6.69131 -7.43145 0
    endloop
  endfacet
  facet normal 0 0 -1
    outer loop
      vertex 17.6603 -54.3529 0
      vertex 3.09017 -9.51056 0
      vertex 5 -8.66025 0
    endloop
  endfacet
  facet normal 0 0 -1
    outer loop
      vertex 5.9738 -56.8369 0
      vertex 1.04528 -9.94522 0
      vertex 3.09017 -9.51056 0
    endloop
  endfacet
  facet normal 0 0 -1
    outer loop
      vertex 5.9738 -56.8369 0
      vertex -1.04528 -9.94522 0
      vertex 1.04528 -9.94522 0
    endloop
  endfacet
  facet normal 0 0 -1
    outer loop
      vertex -5.9738 -56.8369 0
      vertex -1.04528 -9.94522 0
      vertex 5.9738 -56.8369 0
    endloop
  endfacet
  facet normal -0 0 -1
    outer loop
      vertex -1.04528 -9.94522 0
      vertex -5.9738 -56.8369 0
      vertex -3.09017 -9.51056 0
    endloop
  endfacet
  facet normal 0 0 -1
    outer loop
      vertex -17.6603 -54.3529 0
      vertex -3.09017 -9.51056 0
      vertex -5.9738 -56.8369 0
    endloop
  endfacet
  facet normal -0 0 -1
    outer loop
      vertex -3.09017 -9.51056 0
      vertex -17.6603 -54.3529 0
      vertex -5 -8.66025 0
    endloop
  endfacet
  facet normal 0 0 -1
    outer loop
      vertex -28.575 -49.4934 0
      vertex -5 -8.66025 0
      vertex -17.6603 -54.3529 0
    endloop
  endfacet
  facet normal -0 0 -1
    outer loop
      vertex -5 -8.66025 0
      vertex -28.575 -49.4934 0
      vertex -6.69131 -7.43145 0
    endloop
  endfacet
  facet normal 0 0 -1
    outer loop
      vertex -38.2408 -42.4707 0
      vertex -6.69131 -7.43145 0
      vertex -28.575 -49.4934 0
    endloop
  endfacet
  facet normal -0 0 -1
    outer loop
      vertex -6.69131 -7.43145 0
      vertex -38.2408 -42.4707 0
      vertex -8.09017 -5.87785 0
    endloop
  endfacet
  facet normal 0 0 -1
    outer loop
      vertex -46.2353 -33.5919 0
      vertex -8.09017 -5.87785 0
      vertex -38.2408 -42.4707 0
    endloop
  endfacet
  facet normal -0 0 -1
    outer loop
      vertex 46.2353 33.5919 0
      vertex 8.09017 5.87785 0
      vertex 38.2408 42.4707 0
    endloop
  endfacet
  facet normal 0 0 -1
    outer loop
      vertex 6.69131 7.43145 0
      vertex 38.2408 42.4707 0
      vertex 8.09017 5.87785 0
    endloop
  endfacet
  facet normal -0 0 -1
    outer loop
      vertex 38.2408 42.4707 0
      vertex 6.69131 7.43145 0
      vertex 28.575 49.4934 0
    endloop
  endfacet
  facet normal 0 0 -1
    outer loop
      vertex 5 8.66025 0
      vertex 28.575 49.4934 0
      vertex 6.69131 7.43145 0
    endloop
  endfacet
  facet normal -0 0 -1
    outer loop
      vertex 28.575 49.4934 0
      vertex 5 8.66025 0
      vertex 17.6603 54.3529 0
    endloop
  endfacet
  facet normal 0 0 -1
    outer loop
      vertex 3.09017 9.51056 0
      vertex 17.6603 54.3529 0
      vertex 5 8.66025 0
    endloop
  endfacet
  facet normal -0 0 -1
    outer loop
      vertex 17.6603 54.3529 0
      vertex 3.09017 9.51056 0
      vertex 5.9738 56.8369 0
    endloop
  endfacet
  facet normal 0 0 -1
    outer loop
      vertex 1.04528 9.94522 0
      vertex 5.9738 56.8369 0
      vertex 3.09017 9.51056 0
    endloop
  endfacet
  facet normal 0 0 -1
    outer loop
      vertex -1.04528 9.94522 0
      vertex 5.9738 56.8369 0
      vertex 1.04528 9.94522 0
    endloop
  endfacet
  facet normal 0 0 -1
    outer loop
      vertex -5.9738 56.8369 0
      vertex -1.04528 9.94522 0
      vertex -3.09017 9.51056 0
    endloop
  endfacet
  facet normal 0 0 -1
    outer loop
      vertex -17.6603 54.3529 0
      vertex -3.09017 9.51056 0
      vertex -5 8.66025 0
    endloop
  endfacet
  facet normal 0 0 -1
    outer loop
      vertex -1.04528 9.94522 0
      vertex -5.9738 56.8369 0
      vertex 5.9738 56.8369 0
    endloop
  endfacet
  facet normal 0 0 -1
    outer loop
      vertex -28.575 49.4934 0
      vertex -5 8.66025 0
      vertex -6.69131 7.43145 0
    endloop
  endfacet
  facet normal 0 0 -1
    outer loop
      vertex -38.2408 42.4707 0
      vertex -6.69131 7.43145 0
      vertex -8.09017 5.87785 0
    endloop
  endfacet
  facet normal 0 0 -1
    outer loop
      vertex -46.2353 33.5919 0
      vertex -8.09017 5.87785 0
      vertex -9.13545 4.06737 0
    endloop
  endfacet
  facet normal 0 0 -1
    outer loop
      vertex -52.2091 23.245 0
      vertex -9.13545 4.06737 0
      vertex -9.78148 2.07912 0
    endloop
  endfacet
  facet normal 0 0 -1
    outer loop
      vertex -55.9011 11.8822 0
      vertex -9.78148 2.07912 0
      vertex -10 0 0
    endloop
  endfacet
  facet normal -0 0 -1
    outer loop
      vertex -8.09017 -5.87785 0
      vertex -46.2353 -33.5919 0
      vertex -9.13545 -4.06737 0
    endloop
  endfacet
  facet normal 0 0 -1
    outer loop
      vertex -3.09017 9.51056 0
      vertex -17.6603 54.3529 0
      vertex -5.9738 56.8369 0
    endloop
  endfacet
  facet normal 0 0 -1
    outer loop
      vertex -52.2091 -23.245 0
      vertex -9.13545 -4.06737 0
      vertex -46.2353 -33.5919 0
    endloop
  endfacet
  facet normal 0 0 -1
    outer loop
      vertex -5 8.66025 0
      vertex -28.575 49.4934 0
      vertex -17.6603 54.3529 0
    endloop
  endfacet
  facet normal -0 0 -1
    outer loop
      vertex -9.13545 -4.06737 0
      vertex -52.2091 -23.245 0
      vertex -9.78148 -2.07912 0
    endloop
  endfacet
  facet normal 0 0 -1
    outer loop
      vertex -6.69131 7.43145 0
      vertex -38.2408 42.4707 0
      vertex -28.575 49.4934 0
    endloop
  endfacet
  facet normal 0 0 -1
    outer loop
      vertex -55.9011 -11.8822 0
      vertex -9.78148 -2.07912 0
      vertex -52.2091 -23.245 0
    endloop
  endfacet
  facet normal 0 0 -1
    outer loop
      vertex -8.09017 5.87785 0
      vertex -46.2353 33.5919 0
      vertex -38.2408 42.4707 0
    endloop
  endfacet
  facet normal -0 0 -1
    outer loop
      vertex -9.78148 -2.07912 0
      vertex -55.9011 -11.8822 0
      vertex -10 0 0
    endloop
  endfacet
  facet normal 0 0 -1
    outer loop
      vertex -9.13545 4.06737 0
      vertex -52.2091 23.245 0
      vertex -46.2353 33.5919 0
    endloop
  endfacet
  facet normal 0 0 -1
    outer loop
      vertex -57.15 0 0
      vertex -10 0 0
      vertex -55.9011 -11.8822 0
    endloop
  endfacet
  facet normal 0 0 -1
    outer loop
      vertex -9.78148 2.07912 0
      vertex -55.9011 11.8822 0
      vertex -52.2091 23.245 0
    endloop
  endfacet
  facet normal 0 0 -1
    outer loop
      vertex -10 0 0
      vertex -57.15 0 0
      vertex -55.9011 11.8822 0
    endloop
  endfacet
  facet normal -0.504759 0.694726 0.512419
    outer loop
      vertex -9.525 16.4978 63.5
      vertex -38.2408 42.4707 0
      vertex -12.7469 14.1569 63.5
    endloop
  endfacet
  facet normal 0.743686 -0.429369 0.512419
    outer loop
      vertex 52.2091 -23.245 0
      vertex 17.403 -7.74833 63.5
      vertex 46.2353 -33.5919 0
    endloop
  endfacet
  facet normal -0.638165 -0.574606 0.512418
    outer loop
      vertex -15.4118 -11.1973 63.5
      vertex -46.2353 -33.5919 0
      vertex -38.2408 -42.4707 0
    endloop
  endfacet
  facet normal 0.638158 0.574614 0.512419
    outer loop
      vertex 38.2408 42.4707 0
      vertex 12.7469 14.1569 63.5
      vertex 15.4118 11.1973 63.5
    endloop
  endfacet
  facet normal 0.854031 -0.0897645 0.512419
    outer loop
      vertex 57.15 0 0
      vertex 19.05 0 63.5
      vertex 55.9011 -11.8822 0
    endloop
  endfacet
  facet normal 0.178538 -0.839971 0.512419
    outer loop
      vertex 5.88677 -18.1176 63.5
      vertex 1.99127 -18.9456 63.5
      vertex 17.6603 -54.3529 0
    endloop
  endfacet
  facet normal -0.854031 -0.0897645 0.512419
    outer loop
      vertex -19.05 0 63.5
      vertex -57.15 0 0
      vertex -55.9011 -11.8822 0
    endloop
  endfacet
  facet normal 0.743686 0.429369 0.512419
    outer loop
      vertex 46.2353 33.5919 0
      vertex 17.403 7.74833 63.5
      vertex 52.2091 23.245 0
    endloop
  endfacet
  facet normal 0.349277 -0.784495 0.512419
    outer loop
      vertex 28.575 -49.4934 0
      vertex 9.525 -16.4978 63.5
      vertex 17.6603 -54.3529 0
    endloop
  endfacet
  facet normal 0.638165 0.574606 0.512418
    outer loop
      vertex 38.2408 42.4707 0
      vertex 15.4118 11.1973 63.5
      vertex 46.2353 33.5919 0
    endloop
  endfacet
  facet normal 0.743693 0.429358 0.512418
    outer loop
      vertex 46.2353 33.5919 0
      vertex 15.4118 11.1973 63.5
      vertex 17.403 7.74833 63.5
    endloop
  endfacet
  facet normal 0.504756 -0.694729 0.512419
    outer loop
      vertex 38.2408 -42.4707 0
      vertex 9.525 -16.4978 63.5
      vertex 28.575 -49.4934 0
    endloop
  endfacet
  facet normal -0.638165 0.574606 0.512418
    outer loop
      vertex -38.2408 42.4707 0
      vertex -46.2353 33.5919 0
      vertex -15.4118 11.1973 63.5
    endloop
  endfacet
  facet normal 0.504759 0.694726 0.512419
    outer loop
      vertex 38.2408 42.4707 0
      vertex 9.525 16.4978 63.5
      vertex 12.7469 14.1569 63.5
    endloop
  endfacet
  facet normal 0.178538 0.839971 0.512419
    outer loop
      vertex 17.6603 54.3529 0
      vertex 1.99127 18.9456 63.5
      vertex 5.88677 18.1176 63.5
    endloop
  endfacet
  facet normal -0.816706 -0.265364 0.512419
    outer loop
      vertex -17.403 -7.74833 63.5
      vertex -55.9011 -11.8822 0
      vertex -52.2091 -23.245 0
    endloop
  endfacet
  facet normal -0.349271 0.784497 0.51242
    outer loop
      vertex -5.88677 18.1176 63.5
      vertex -17.6603 54.3529 0
      vertex -9.525 16.4978 63.5
    endloop
  endfacet
  facet normal -0.816706 0.265364 0.512419
    outer loop
      vertex -52.2091 23.245 0
      vertex -55.9011 11.8822 0
      vertex -17.403 7.74833 63.5
    endloop
  endfacet
  facet normal -0.504756 0.694729 0.512419
    outer loop
      vertex -28.575 49.4934 0
      vertex -38.2408 42.4707 0
      vertex -9.525 16.4978 63.5
    endloop
  endfacet
  facet normal 0.816704 0.26537 0.512418
    outer loop
      vertex 55.9011 11.8822 0
      vertex 17.403 7.74833 63.5
      vertex 18.6337 3.96072 63.5
    endloop
  endfacet
  facet normal 0.816706 -0.265364 0.512419
    outer loop
      vertex 55.9011 -11.8822 0
      vertex 17.403 -7.74833 63.5
      vertex 52.2091 -23.245 0
    endloop
  endfacet
  facet normal -0.816704 -0.26537 0.512418
    outer loop
      vertex -18.6337 -3.96072 63.5
      vertex -55.9011 -11.8822 0
      vertex -17.403 -7.74833 63.5
    endloop
  endfacet
  facet normal -0.178538 -0.839971 0.512419
    outer loop
      vertex -1.99127 -18.9456 63.5
      vertex -17.6603 -54.3529 0
      vertex -5.9738 -56.8369 0
    endloop
  endfacet
  facet normal 0.349271 -0.784497 0.51242
    outer loop
      vertex 9.525 -16.4978 63.5
      vertex 5.88677 -18.1176 63.5
      vertex 17.6603 -54.3529 0
    endloop
  endfacet
  facet normal -0.349277 0.784495 0.512419
    outer loop
      vertex -17.6603 54.3529 0
      vertex -28.575 49.4934 0
      vertex -9.525 16.4978 63.5
    endloop
  endfacet
  facet normal -0.349277 -0.784495 0.512419
    outer loop
      vertex -9.525 -16.4978 63.5
      vertex -28.575 -49.4934 0
      vertex -17.6603 -54.3529 0
    endloop
  endfacet
  facet normal -0.349271 -0.784497 0.51242
    outer loop
      vertex -9.525 -16.4978 63.5
      vertex -17.6603 -54.3529 0
      vertex -5.88677 -18.1176 63.5
    endloop
  endfacet
  facet normal -0.854031 -0.0897648 0.512419
    outer loop
      vertex -19.05 0 63.5
      vertex -55.9011 -11.8822 0
      vertex -18.6337 -3.96072 63.5
    endloop
  endfacet
  facet normal 0.854031 0.0897648 0.512419
    outer loop
      vertex 55.9011 11.8822 0
      vertex 18.6337 3.96072 63.5
      vertex 19.05 0 63.5
    endloop
  endfacet
  facet normal 0.816704 -0.26537 0.512418
    outer loop
      vertex 18.6337 -3.96072 63.5
      vertex 17.403 -7.74833 63.5
      vertex 55.9011 -11.8822 0
    endloop
  endfacet
  facet normal 0.854031 -0.0897648 0.512419
    outer loop
      vertex 19.05 0 63.5
      vertex 18.6337 -3.96072 63.5
      vertex 55.9011 -11.8822 0
    endloop
  endfacet
  facet normal 0 -0.858736 0.512419
    outer loop
      vertex -5.9738 -56.8369 0
      vertex 1.99127 -18.9456 63.5
      vertex -1.99127 -18.9456 63.5
    endloop
  endfacet
  facet normal 0 -0.858736 0.512419
    outer loop
      vertex 1.99127 -18.9456 63.5
      vertex -5.9738 -56.8369 0
      vertex 5.9738 -56.8369 0
    endloop
  endfacet
  facet normal -0.178538 0.839971 0.512419
    outer loop
      vertex -5.9738 56.8369 0
      vertex -17.6603 54.3529 0
      vertex -1.99127 18.9456 63.5
    endloop
  endfacet
  facet normal -0.816704 0.26537 0.512418
    outer loop
      vertex -17.403 7.74833 63.5
      vertex -55.9011 11.8822 0
      vertex -18.6337 3.96072 63.5
    endloop
  endfacet
  facet normal -0.854031 0.0897648 0.512419
    outer loop
      vertex -18.6337 3.96072 63.5
      vertex -55.9011 11.8822 0
      vertex -19.05 0 63.5
    endloop
  endfacet
  facet normal 0 0.858736 0.512419
    outer loop
      vertex 5.9738 56.8369 0
      vertex -1.99127 18.9456 63.5
      vertex 1.99127 18.9456 63.5
    endloop
  endfacet
  facet normal 0 0.858736 0.512419
    outer loop
      vertex -1.99127 18.9456 63.5
      vertex 5.9738 56.8369 0
      vertex -5.9738 56.8369 0
    endloop
  endfacet
  facet normal -0.178538 0.839971 0.512419
    outer loop
      vertex -1.99127 18.9456 63.5
      vertex -17.6603 54.3529 0
      vertex -5.88677 18.1176 63.5
    endloop
  endfacet
  facet normal -0.504759 -0.694726 0.512419
    outer loop
      vertex -12.7469 -14.1569 63.5
      vertex -38.2408 -42.4707 0
      vertex -9.525 -16.4978 63.5
    endloop
  endfacet
  facet normal -0.951054 -0.309024 0
    outer loop
      vertex 18.6337 3.96072 2
      vertex 17.403 7.74833 63.5
      vertex 17.403 7.74833 2
    endloop
  endfacet
  facet normal -0.951054 -0.309024 0
    outer loop
      vertex 17.403 7.74833 63.5
      vertex 18.6337 3.96072 2
      vertex 18.6337 3.96072 63.5
    endloop
  endfacet
  facet normal -0.994522 -0.104531 0
    outer loop
      vertex 19.05 0 2
      vertex 18.6337 3.96072 63.5
      vertex 18.6337 3.96072 2
    endloop
  endfacet
  facet normal -0.994522 -0.104531 0
    outer loop
      vertex 18.6337 3.96072 63.5
      vertex 19.05 0 2
      vertex 19.05 0 63.5
    endloop
  endfacet
  facet normal -0.866032 -0.499988 0
    outer loop
      vertex 17.403 7.74833 2
      vertex 15.4118 11.1973 63.5
      vertex 15.4118 11.1973 2
    endloop
  endfacet
  facet normal -0.866032 -0.499988 0
    outer loop
      vertex 15.4118 11.1973 63.5
      vertex 17.403 7.74833 2
      vertex 17.403 7.74833 63.5
    endloop
  endfacet
  facet normal -0.587794 0.809011 0
    outer loop
      vertex 12.7469 -14.1569 2
      vertex 9.525 -16.4978 63.5
      vertex 12.7469 -14.1569 63.5
    endloop
  endfacet
  facet normal -0.587794 0.809011 0
    outer loop
      vertex 9.525 -16.4978 63.5
      vertex 12.7469 -14.1569 2
      vertex 9.525 -16.4978 2
    endloop
  endfacet
  facet normal 0 0 1
    outer loop
      vertex 10 0 2
      vertex 19.05 0 2
      vertex 18.6337 3.96072 2
    endloop
  endfacet
  facet normal 0 0 1
    outer loop
      vertex 9.78148 2.07912 2
      vertex 18.6337 3.96072 2
      vertex 17.403 7.74833 2
    endloop
  endfacet
  facet normal 0 0 1
    outer loop
      vertex 19.05 0 2
      vertex 10 0 2
      vertex 18.6337 -3.96072 2
    endloop
  endfacet
  facet normal 0 0 1
    outer loop
      vertex 9.13545 4.06737 2
      vertex 17.403 7.74833 2
      vertex 15.4118 11.1973 2
    endloop
  endfacet
  facet normal -0 0 1
    outer loop
      vertex 9.78148 -2.07912 2
      vertex 18.6337 -3.96072 2
      vertex 10 0 2
    endloop
  endfacet
  facet normal 0 0 1
    outer loop
      vertex 8.09017 5.87785 2
      vertex 15.4118 11.1973 2
      vertex 12.7469 14.1569 2
    endloop
  endfacet
  facet normal 0 0 1
    outer loop
      vertex 18.6337 -3.96072 2
      vertex 9.78148 -2.07912 2
      vertex 17.403 -7.74833 2
    endloop
  endfacet
  facet normal -0 0 1
    outer loop
      vertex 9.13545 -4.06737 2
      vertex 17.403 -7.74833 2
      vertex 9.78148 -2.07912 2
    endloop
  endfacet
  facet normal 0 0 1
    outer loop
      vertex 18.6337 3.96072 2
      vertex 9.78148 2.07912 2
      vertex 10 0 2
    endloop
  endfacet
  facet normal 0 0 1
    outer loop
      vertex 6.69131 7.43145 2
      vertex 12.7469 14.1569 2
      vertex 9.525 16.4978 2
    endloop
  endfacet
  facet normal 0 0 1
    outer loop
      vertex 17.403 7.74833 2
      vertex 9.13545 4.06737 2
      vertex 9.78148 2.07912 2
    endloop
  endfacet
  facet normal 0 0 1
    outer loop
      vertex 15.4118 11.1973 2
      vertex 8.09017 5.87785 2
      vertex 9.13545 4.06737 2
    endloop
  endfacet
  facet normal 0 0 1
    outer loop
      vertex 12.7469 14.1569 2
      vertex 6.69131 7.43145 2
      vertex 8.09017 5.87785 2
    endloop
  endfacet
  facet normal 0 0 1
    outer loop
      vertex 5 8.66025 2
      vertex 9.525 16.4978 2
      vertex 5.88677 18.1176 2
    endloop
  endfacet
  facet normal 0 0 1
    outer loop
      vertex 9.525 16.4978 2
      vertex 5 8.66025 2
      vertex 6.69131 7.43145 2
    endloop
  endfacet
  facet normal 0 0 1
    outer loop
      vertex 5.88677 18.1176 2
      vertex 3.09017 9.51056 2
      vertex 5 8.66025 2
    endloop
  endfacet
  facet normal 0 0 1
    outer loop
      vertex 1.99127 18.9456 2
      vertex 3.09017 9.51056 2
      vertex 5.88677 18.1176 2
    endloop
  endfacet
  facet normal 0 0 1
    outer loop
      vertex 1.99127 18.9456 2
      vertex 1.04528 9.94522 2
      vertex 3.09017 9.51056 2
    endloop
  endfacet
  facet normal 0 0 1
    outer loop
      vertex 1.99127 18.9456 2
      vertex -1.04528 9.94522 2
      vertex 1.04528 9.94522 2
    endloop
  endfacet
  facet normal -0 0 1
    outer loop
      vertex -1.99127 18.9456 2
      vertex -1.04528 9.94522 2
      vertex 1.99127 18.9456 2
    endloop
  endfacet
  facet normal 0 0 1
    outer loop
      vertex -1.99127 18.9456 2
      vertex -3.09017 9.51056 2
      vertex -1.04528 9.94522 2
    endloop
  endfacet
  facet normal -0 0 1
    outer loop
      vertex -5.88677 18.1176 2
      vertex -3.09017 9.51056 2
      vertex -1.99127 18.9456 2
    endloop
  endfacet
  facet normal 0 0 1
    outer loop
      vertex -3.09017 9.51056 2
      vertex -5.88677 18.1176 2
      vertex -5 8.66025 2
    endloop
  endfacet
  facet normal -0 0 1
    outer loop
      vertex -9.525 16.4978 2
      vertex -5 8.66025 2
      vertex -5.88677 18.1176 2
    endloop
  endfacet
  facet normal 0 0 1
    outer loop
      vertex -5 8.66025 2
      vertex -9.525 16.4978 2
      vertex -6.69131 7.43145 2
    endloop
  endfacet
  facet normal -0 0 1
    outer loop
      vertex -12.7469 14.1569 2
      vertex -6.69131 7.43145 2
      vertex -9.525 16.4978 2
    endloop
  endfacet
  facet normal 0 0 1
    outer loop
      vertex -6.69131 7.43145 2
      vertex -12.7469 14.1569 2
      vertex -8.09017 5.87785 2
    endloop
  endfacet
  facet normal -0 0 1
    outer loop
      vertex -15.4118 11.1973 2
      vertex -8.09017 5.87785 2
      vertex -12.7469 14.1569 2
    endloop
  endfacet
  facet normal 0 0 1
    outer loop
      vertex -8.09017 5.87785 2
      vertex -15.4118 11.1973 2
      vertex -9.13545 4.06737 2
    endloop
  endfacet
  facet normal -0 0 1
    outer loop
      vertex -17.403 7.74833 2
      vertex -9.13545 4.06737 2
      vertex -15.4118 11.1973 2
    endloop
  endfacet
  facet normal 0 0 1
    outer loop
      vertex 17.403 -7.74833 2
      vertex 9.13545 -4.06737 2
      vertex 15.4118 -11.1973 2
    endloop
  endfacet
  facet normal -0 0 1
    outer loop
      vertex 8.09017 -5.87785 2
      vertex 15.4118 -11.1973 2
      vertex 9.13545 -4.06737 2
    endloop
  endfacet
  facet normal 0 0 1
    outer loop
      vertex 15.4118 -11.1973 2
      vertex 8.09017 -5.87785 2
      vertex 12.7469 -14.1569 2
    endloop
  endfacet
  facet normal -0 0 1
    outer loop
      vertex 6.69131 -7.43145 2
      vertex 12.7469 -14.1569 2
      vertex 8.09017 -5.87785 2
    endloop
  endfacet
  facet normal 0 0 1
    outer loop
      vertex 12.7469 -14.1569 2
      vertex 6.69131 -7.43145 2
      vertex 9.525 -16.4978 2
    endloop
  endfacet
  facet normal -0 0 1
    outer loop
      vertex 5 -8.66025 2
      vertex 9.525 -16.4978 2
      vertex 6.69131 -7.43145 2
    endloop
  endfacet
  facet normal 0 0 1
    outer loop
      vertex 9.525 -16.4978 2
      vertex 5 -8.66025 2
      vertex 5.88677 -18.1176 2
    endloop
  endfacet
  facet normal -0 0 1
    outer loop
      vertex 3.09017 -9.51056 2
      vertex 5.88677 -18.1176 2
      vertex 5 -8.66025 2
    endloop
  endfacet
  facet normal 0 0 1
    outer loop
      vertex 3.09017 -9.51056 2
      vertex 1.99127 -18.9456 2
      vertex 5.88677 -18.1176 2
    endloop
  endfacet
  facet normal -0 0 1
    outer loop
      vertex 1.04528 -9.94522 2
      vertex 1.99127 -18.9456 2
      vertex 3.09017 -9.51056 2
    endloop
  endfacet
  facet normal -0 0 1
    outer loop
      vertex -1.04528 -9.94522 2
      vertex 1.99127 -18.9456 2
      vertex 1.04528 -9.94522 2
    endloop
  endfacet
  facet normal 0 0 1
    outer loop
      vertex -1.04528 -9.94522 2
      vertex -1.99127 -18.9456 2
      vertex 1.99127 -18.9456 2
    endloop
  endfacet
  facet normal 0 0 1
    outer loop
      vertex -3.09017 -9.51056 2
      vertex -1.99127 -18.9456 2
      vertex -1.04528 -9.94522 2
    endloop
  endfacet
  facet normal 0 0 1
    outer loop
      vertex -5.88677 -18.1176 2
      vertex -3.09017 -9.51056 2
      vertex -5 -8.66025 2
    endloop
  endfacet
  facet normal 0 0 1
    outer loop
      vertex -3.09017 -9.51056 2
      vertex -5.88677 -18.1176 2
      vertex -1.99127 -18.9456 2
    endloop
  endfacet
  facet normal 0 0 1
    outer loop
      vertex -9.525 -16.4978 2
      vertex -5 -8.66025 2
      vertex -6.69131 -7.43145 2
    endloop
  endfacet
  facet normal 0 0 1
    outer loop
      vertex -12.7469 -14.1569 2
      vertex -6.69131 -7.43145 2
      vertex -8.09017 -5.87785 2
    endloop
  endfacet
  facet normal 0 0 1
    outer loop
      vertex -15.4118 -11.1973 2
      vertex -8.09017 -5.87785 2
      vertex -9.13545 -4.06737 2
    endloop
  endfacet
  facet normal 0 0 1
    outer loop
      vertex -5 -8.66025 2
      vertex -9.525 -16.4978 2
      vertex -5.88677 -18.1176 2
    endloop
  endfacet
  facet normal 0 0 1
    outer loop
      vertex -17.403 -7.74833 2
      vertex -9.13545 -4.06737 2
      vertex -9.78148 -2.07912 2
    endloop
  endfacet
  facet normal 0 0 1
    outer loop
      vertex -18.6337 -3.96072 2
      vertex -9.78148 -2.07912 2
      vertex -10 0 2
    endloop
  endfacet
  facet normal 0 0 1
    outer loop
      vertex -9.13545 4.06737 2
      vertex -17.403 7.74833 2
      vertex -9.78148 2.07912 2
    endloop
  endfacet
  facet normal 0 0 1
    outer loop
      vertex -6.69131 -7.43145 2
      vertex -12.7469 -14.1569 2
      vertex -9.525 -16.4978 2
    endloop
  endfacet
  facet normal -0 0 1
    outer loop
      vertex -18.6337 3.96072 2
      vertex -9.78148 2.07912 2
      vertex -17.403 7.74833 2
    endloop
  endfacet
  facet normal 0 0 1
    outer loop
      vertex -8.09017 -5.87785 2
      vertex -15.4118 -11.1973 2
      vertex -12.7469 -14.1569 2
    endloop
  endfacet
  facet normal 0 0 1
    outer loop
      vertex -9.78148 2.07912 2
      vertex -18.6337 3.96072 2
      vertex -10 0 2
    endloop
  endfacet
  facet normal 0 0 1
    outer loop
      vertex -9.13545 -4.06737 2
      vertex -17.403 -7.74833 2
      vertex -15.4118 -11.1973 2
    endloop
  endfacet
  facet normal 0 0 1
    outer loop
      vertex -19.05 0 2
      vertex -10 0 2
      vertex -18.6337 3.96072 2
    endloop
  endfacet
  facet normal 0 0 1
    outer loop
      vertex -9.78148 -2.07912 2
      vertex -18.6337 -3.96072 2
      vertex -17.403 -7.74833 2
    endloop
  endfacet
  facet normal 0 0 1
    outer loop
      vertex -10 0 2
      vertex -19.05 0 2
      vertex -18.6337 -3.96072 2
    endloop
  endfacet
  facet normal 0.743137 -0.66914 0
    outer loop
      vertex -15.4118 11.1973 63.5
      vertex -12.7469 14.1569 2
      vertex -12.7469 14.1569 63.5
    endloop
  endfacet
  facet normal 0.743137 -0.66914 0
    outer loop
      vertex -12.7469 14.1569 2
      vertex -15.4118 11.1973 63.5
      vertex -15.4118 11.1973 2
    endloop
  endfacet
  facet normal -0.406727 -0.91355 0
    outer loop
      vertex 5.88677 18.1176 2
      vertex 9.525 16.4978 63.5
      vertex 5.88677 18.1176 63.5
    endloop
  endfacet
  facet normal -0.406727 -0.91355 -0
    outer loop
      vertex 9.525 16.4978 63.5
      vertex 5.88677 18.1176 2
      vertex 9.525 16.4978 2
    endloop
  endfacet
  facet normal 0.951054 -0.309024 0
    outer loop
      vertex -18.6337 3.96072 63.5
      vertex -17.403 7.74833 2
      vertex -17.403 7.74833 63.5
    endloop
  endfacet
  facet normal 0.951054 -0.309024 0
    outer loop
      vertex -17.403 7.74833 2
      vertex -18.6337 3.96072 63.5
      vertex -18.6337 3.96072 2
    endloop
  endfacet
  facet normal 0 1 -0
    outer loop
      vertex 1.99127 -18.9456 2
      vertex -1.99127 -18.9456 63.5
      vertex 1.99127 -18.9456 63.5
    endloop
  endfacet
  facet normal 0 1 0
    outer loop
      vertex -1.99127 -18.9456 63.5
      vertex 1.99127 -18.9456 2
      vertex -1.99127 -18.9456 2
    endloop
  endfacet
  facet normal -0.994522 0.104531 0
    outer loop
      vertex 18.6337 -3.96072 2
      vertex 19.05 0 63.5
      vertex 19.05 0 2
    endloop
  endfacet
  facet normal -0.994522 0.104531 0
    outer loop
      vertex 19.05 0 63.5
      vertex 18.6337 -3.96072 2
      vertex 18.6337 -3.96072 63.5
    endloop
  endfacet
  facet normal 0.406727 -0.91355 0
    outer loop
      vertex -9.525 16.4978 2
      vertex -5.88677 18.1176 63.5
      vertex -9.525 16.4978 63.5
    endloop
  endfacet
  facet normal 0.406727 -0.91355 0
    outer loop
      vertex -5.88677 18.1176 63.5
      vertex -9.525 16.4978 2
      vertex -5.88677 18.1176 2
    endloop
  endfacet
  facet normal -0.743137 -0.66914 0
    outer loop
      vertex 15.4118 11.1973 2
      vertex 12.7469 14.1569 63.5
      vertex 12.7469 14.1569 2
    endloop
  endfacet
  facet normal -0.743137 -0.66914 0
    outer loop
      vertex 12.7469 14.1569 63.5
      vertex 15.4118 11.1973 2
      vertex 15.4118 11.1973 63.5
    endloop
  endfacet
  facet normal 0.951054 0.309024 0
    outer loop
      vertex -17.403 -7.74833 63.5
      vertex -18.6337 -3.96072 2
      vertex -18.6337 -3.96072 63.5
    endloop
  endfacet
  facet normal 0.951054 0.309024 0
    outer loop
      vertex -18.6337 -3.96072 2
      vertex -17.403 -7.74833 63.5
      vertex -17.403 -7.74833 2
    endloop
  endfacet
  facet normal 0.994522 -0.104531 0
    outer loop
      vertex -19.05 0 63.5
      vertex -18.6337 3.96072 2
      vertex -18.6337 3.96072 63.5
    endloop
  endfacet
  facet normal 0.994522 -0.104531 0
    outer loop
      vertex -18.6337 3.96072 2
      vertex -19.05 0 63.5
      vertex -19.05 0 2
    endloop
  endfacet
  facet normal -0.866032 0.499988 0
    outer loop
      vertex 15.4118 -11.1973 2
      vertex 17.403 -7.74833 63.5
      vertex 17.403 -7.74833 2
    endloop
  endfacet
  facet normal -0.866032 0.499988 0
    outer loop
      vertex 17.403 -7.74833 63.5
      vertex 15.4118 -11.1973 2
      vertex 15.4118 -11.1973 63.5
    endloop
  endfacet
  facet normal -0.951054 0.309024 0
    outer loop
      vertex 17.403 -7.74833 2
      vertex 18.6337 -3.96072 63.5
      vertex 18.6337 -3.96072 2
    endloop
  endfacet
  facet normal -0.951054 0.309024 0
    outer loop
      vertex 18.6337 -3.96072 63.5
      vertex 17.403 -7.74833 2
      vertex 17.403 -7.74833 63.5
    endloop
  endfacet
  facet normal 0.866032 -0.499988 0
    outer loop
      vertex -17.403 7.74833 63.5
      vertex -15.4118 11.1973 2
      vertex -15.4118 11.1973 63.5
    endloop
  endfacet
  facet normal 0.866032 -0.499988 0
    outer loop
      vertex -15.4118 11.1973 2
      vertex -17.403 7.74833 63.5
      vertex -17.403 7.74833 2
    endloop
  endfacet
  facet normal 0 -1 0
    outer loop
      vertex -1.99127 18.9456 2
      vertex 1.99127 18.9456 63.5
      vertex -1.99127 18.9456 63.5
    endloop
  endfacet
  facet normal 0 -1 -0
    outer loop
      vertex 1.99127 18.9456 63.5
      vertex -1.99127 18.9456 2
      vertex 1.99127 18.9456 2
    endloop
  endfacet
  facet normal -0.743137 0.66914 0
    outer loop
      vertex 12.7469 -14.1569 2
      vertex 15.4118 -11.1973 63.5
      vertex 15.4118 -11.1973 2
    endloop
  endfacet
  facet normal -0.743137 0.66914 0
    outer loop
      vertex 15.4118 -11.1973 63.5
      vertex 12.7469 -14.1569 2
      vertex 12.7469 -14.1569 63.5
    endloop
  endfacet
  facet normal 0.207908 0.978148 -0
    outer loop
      vertex -1.99127 -18.9456 2
      vertex -5.88677 -18.1176 63.5
      vertex -1.99127 -18.9456 63.5
    endloop
  endfacet
  facet normal 0.207908 0.978148 0
    outer loop
      vertex -5.88677 -18.1176 63.5
      vertex -1.99127 -18.9456 2
      vertex -5.88677 -18.1176 2
    endloop
  endfacet
  facet normal 0.866032 0.499988 0
    outer loop
      vertex -15.4118 -11.1973 63.5
      vertex -17.403 -7.74833 2
      vertex -17.403 -7.74833 63.5
    endloop
  endfacet
  facet normal 0.866032 0.499988 0
    outer loop
      vertex -17.403 -7.74833 2
      vertex -15.4118 -11.1973 63.5
      vertex -15.4118 -11.1973 2
    endloop
  endfacet
  facet normal 0.743137 0.66914 0
    outer loop
      vertex -12.7469 -14.1569 63.5
      vertex -15.4118 -11.1973 2
      vertex -15.4118 -11.1973 63.5
    endloop
  endfacet
  facet normal 0.743137 0.66914 0
    outer loop
      vertex -15.4118 -11.1973 2
      vertex -12.7469 -14.1569 63.5
      vertex -12.7469 -14.1569 2
    endloop
  endfacet
  facet normal 0.994522 0.104531 0
    outer loop
      vertex -18.6337 -3.96072 63.5
      vertex -19.05 0 2
      vertex -19.05 0 63.5
    endloop
  endfacet
  facet normal 0.994522 0.104531 0
    outer loop
      vertex -19.05 0 2
      vertex -18.6337 -3.96072 63.5
      vertex -18.6337 -3.96072 2
    endloop
  endfacet
  facet normal -0.406727 0.91355 0
    outer loop
      vertex 9.525 -16.4978 2
      vertex 5.88677 -18.1176 63.5
      vertex 9.525 -16.4978 63.5
    endloop
  endfacet
  facet normal -0.406727 0.91355 0
    outer loop
      vertex 5.88677 -18.1176 63.5
      vertex 9.525 -16.4978 2
      vertex 5.88677 -18.1176 2
    endloop
  endfacet
  facet normal -0.207908 0.978148 0
    outer loop
      vertex 5.88677 -18.1176 2
      vertex 1.99127 -18.9456 63.5
      vertex 5.88677 -18.1176 63.5
    endloop
  endfacet
  facet normal -0.207908 0.978148 0
    outer loop
      vertex 1.99127 -18.9456 63.5
      vertex 5.88677 -18.1176 2
      vertex 1.99127 -18.9456 2
    endloop
  endfacet
  facet normal -0.207908 -0.978148 0
    outer loop
      vertex 1.99127 18.9456 2
      vertex 5.88677 18.1176 63.5
      vertex 1.99127 18.9456 63.5
    endloop
  endfacet
  facet normal -0.207908 -0.978148 -0
    outer loop
      vertex 5.88677 18.1176 63.5
      vertex 1.99127 18.9456 2
      vertex 5.88677 18.1176 2
    endloop
  endfacet
  facet normal -0.587794 -0.809011 0
    outer loop
      vertex 9.525 16.4978 2
      vertex 12.7469 14.1569 63.5
      vertex 9.525 16.4978 63.5
    endloop
  endfacet
  facet normal -0.587794 -0.809011 -0
    outer loop
      vertex 12.7469 14.1569 63.5
      vertex 9.525 16.4978 2
      vertex 12.7469 14.1569 2
    endloop
  endfacet
  facet normal 0.587794 0.809011 -0
    outer loop
      vertex -9.525 -16.4978 2
      vertex -12.7469 -14.1569 63.5
      vertex -9.525 -16.4978 63.5
    endloop
  endfacet
  facet normal 0.587794 0.809011 0
    outer loop
      vertex -12.7469 -14.1569 63.5
      vertex -9.525 -16.4978 2
      vertex -12.7469 -14.1569 2
    endloop
  endfacet
  facet normal 0.587794 -0.809011 0
    outer loop
      vertex -12.7469 14.1569 2
      vertex -9.525 16.4978 63.5
      vertex -12.7469 14.1569 63.5
    endloop
  endfacet
  facet normal 0.587794 -0.809011 0
    outer loop
      vertex -9.525 16.4978 63.5
      vertex -12.7469 14.1569 2
      vertex -9.525 16.4978 2
    endloop
  endfacet
  facet normal 0.207908 -0.978148 0
    outer loop
      vertex -5.88677 18.1176 2
      vertex -1.99127 18.9456 63.5
      vertex -5.88677 18.1176 63.5
    endloop
  endfacet
  facet normal 0.207908 -0.978148 0
    outer loop
      vertex -1.99127 18.9456 63.5
      vertex -5.88677 18.1176 2
      vertex -1.99127 18.9456 2
    endloop
  endfacet
  facet normal 0.406727 0.91355 -0
    outer loop
      vertex -5.88677 -18.1176 2
      vertex -9.525 -16.4978 63.5
      vertex -5.88677 -18.1176 63.5
    endloop
  endfacet
  facet normal 0.406727 0.91355 0
    outer loop
      vertex -9.525 -16.4978 63.5
      vertex -5.88677 -18.1176 2
      vertex -9.525 -16.4978 2
    endloop
  endfacet
  facet normal 0.743147 0.669129 0
    outer loop
      vertex -6.69131 -7.43145 2
      vertex -8.09017 -5.87785 0
      vertex -8.09017 -5.87785 2
    endloop
  endfacet
  facet normal 0.743147 0.669129 0
    outer loop
      vertex -8.09017 -5.87785 0
      vertex -6.69131 -7.43145 2
      vertex -6.69131 -7.43145 0
    endloop
  endfacet
  facet normal -0.951055 -0.309021 0
    outer loop
      vertex 9.78148 2.07912 0
      vertex 9.13545 4.06737 2
      vertex 9.13545 4.06737 0
    endloop
  endfacet
  facet normal -0.951055 -0.309021 0
    outer loop
      vertex 9.13545 4.06737 2
      vertex 9.78148 2.07912 0
      vertex 9.78148 2.07912 2
    endloop
  endfacet
  facet normal -0.994522 -0.104526 0
    outer loop
      vertex 10 0 0
      vertex 9.78148 2.07912 2
      vertex 9.78148 2.07912 0
    endloop
  endfacet
  facet normal -0.994522 -0.104526 0
    outer loop
      vertex 9.78148 2.07912 2
      vertex 10 0 0
      vertex 10 0 2
    endloop
  endfacet
  facet normal -0.866026 -0.5 0
    outer loop
      vertex 9.13545 4.06737 0
      vertex 8.09017 5.87785 2
      vertex 8.09017 5.87785 0
    endloop
  endfacet
  facet normal -0.866026 -0.5 0
    outer loop
      vertex 8.09017 5.87785 2
      vertex 9.13545 4.06737 0
      vertex 9.13545 4.06737 2
    endloop
  endfacet
  facet normal -0.951055 0.309021 0
    outer loop
      vertex 9.13545 -4.06737 0
      vertex 9.78148 -2.07912 2
      vertex 9.78148 -2.07912 0
    endloop
  endfacet
  facet normal -0.951055 0.309021 0
    outer loop
      vertex 9.78148 -2.07912 2
      vertex 9.13545 -4.06737 0
      vertex 9.13545 -4.06737 2
    endloop
  endfacet
  facet normal -0.587783 0.809019 0
    outer loop
      vertex 6.69131 -7.43145 0
      vertex 5 -8.66025 2
      vertex 6.69131 -7.43145 2
    endloop
  endfacet
  facet normal -0.587783 0.809019 0
    outer loop
      vertex 5 -8.66025 2
      vertex 6.69131 -7.43145 0
      vertex 5 -8.66025 0
    endloop
  endfacet
  facet normal -0.743147 0.669129 0
    outer loop
      vertex 6.69131 -7.43145 0
      vertex 8.09017 -5.87785 2
      vertex 8.09017 -5.87785 0
    endloop
  endfacet
  facet normal -0.743147 0.669129 0
    outer loop
      vertex 8.09017 -5.87785 2
      vertex 6.69131 -7.43145 0
      vertex 6.69131 -7.43145 2
    endloop
  endfacet
  facet normal -0.994522 0.104526 0
    outer loop
      vertex 9.78148 -2.07912 0
      vertex 10 0 2
      vertex 10 0 0
    endloop
  endfacet
  facet normal -0.994522 0.104526 0
    outer loop
      vertex 10 0 2
      vertex 9.78148 -2.07912 0
      vertex 9.78148 -2.07912 2
    endloop
  endfacet
  facet normal 0.406736 0.913546 -0
    outer loop
      vertex -3.09017 -9.51056 0
      vertex -5 -8.66025 2
      vertex -3.09017 -9.51056 2
    endloop
  endfacet
  facet normal 0.406736 0.913546 0
    outer loop
      vertex -5 -8.66025 2
      vertex -3.09017 -9.51056 0
      vertex -5 -8.66025 0
    endloop
  endfacet
  facet normal -0.406736 -0.913546 0
    outer loop
      vertex 3.09017 9.51056 0
      vertex 5 8.66025 2
      vertex 3.09017 9.51056 2
    endloop
  endfacet
  facet normal -0.406736 -0.913546 -0
    outer loop
      vertex 5 8.66025 2
      vertex 3.09017 9.51056 0
      vertex 5 8.66025 0
    endloop
  endfacet
  facet normal -0.743147 -0.669129 0
    outer loop
      vertex 8.09017 5.87785 0
      vertex 6.69131 7.43145 2
      vertex 6.69131 7.43145 0
    endloop
  endfacet
  facet normal -0.743147 -0.669129 0
    outer loop
      vertex 6.69131 7.43145 2
      vertex 8.09017 5.87785 0
      vertex 8.09017 5.87785 2
    endloop
  endfacet
  facet normal 0.587783 0.809019 -0
    outer loop
      vertex -5 -8.66025 0
      vertex -6.69131 -7.43145 2
      vertex -5 -8.66025 2
    endloop
  endfacet
  facet normal 0.587783 0.809019 0
    outer loop
      vertex -6.69131 -7.43145 2
      vertex -5 -8.66025 0
      vertex -6.69131 -7.43145 0
    endloop
  endfacet
  facet normal 0.743147 -0.669129 0
    outer loop
      vertex -8.09017 5.87785 2
      vertex -6.69131 7.43145 0
      vertex -6.69131 7.43145 2
    endloop
  endfacet
  facet normal 0.743147 -0.669129 0
    outer loop
      vertex -6.69131 7.43145 0
      vertex -8.09017 5.87785 2
      vertex -8.09017 5.87785 0
    endloop
  endfacet
  facet normal 0 -1 0
    outer loop
      vertex -1.04528 9.94522 0
      vertex 1.04528 9.94522 2
      vertex -1.04528 9.94522 2
    endloop
  endfacet
  facet normal 0 -1 -0
    outer loop
      vertex 1.04528 9.94522 2
      vertex -1.04528 9.94522 0
      vertex 1.04528 9.94522 0
    endloop
  endfacet
  facet normal -0.406736 0.913546 0
    outer loop
      vertex 5 -8.66025 0
      vertex 3.09017 -9.51056 2
      vertex 5 -8.66025 2
    endloop
  endfacet
  facet normal -0.406736 0.913546 0
    outer loop
      vertex 3.09017 -9.51056 2
      vertex 5 -8.66025 0
      vertex 3.09017 -9.51056 0
    endloop
  endfacet
  facet normal -0.207914 0.978147 0
    outer loop
      vertex 3.09017 -9.51056 0
      vertex 1.04528 -9.94522 2
      vertex 3.09017 -9.51056 2
    endloop
  endfacet
  facet normal -0.207914 0.978147 0
    outer loop
      vertex 1.04528 -9.94522 2
      vertex 3.09017 -9.51056 0
      vertex 1.04528 -9.94522 0
    endloop
  endfacet
  facet normal 0.951055 -0.309021 0
    outer loop
      vertex -9.78148 2.07912 2
      vertex -9.13545 4.06737 0
      vertex -9.13545 4.06737 2
    endloop
  endfacet
  facet normal 0.951055 -0.309021 0
    outer loop
      vertex -9.13545 4.06737 0
      vertex -9.78148 2.07912 2
      vertex -9.78148 2.07912 0
    endloop
  endfacet
  facet normal 0.951055 0.309021 0
    outer loop
      vertex -9.13545 -4.06737 2
      vertex -9.78148 -2.07912 0
      vertex -9.78148 -2.07912 2
    endloop
  endfacet
  facet normal 0.951055 0.309021 0
    outer loop
      vertex -9.78148 -2.07912 0
      vertex -9.13545 -4.06737 2
      vertex -9.13545 -4.06737 0
    endloop
  endfacet
  facet normal 0.406736 -0.913546 0
    outer loop
      vertex -5 8.66025 0
      vertex -3.09017 9.51056 2
      vertex -5 8.66025 2
    endloop
  endfacet
  facet normal 0.406736 -0.913546 0
    outer loop
      vertex -3.09017 9.51056 2
      vertex -5 8.66025 0
      vertex -3.09017 9.51056 0
    endloop
  endfacet
  facet normal 0.207914 0.978147 -0
    outer loop
      vertex -1.04528 -9.94522 0
      vertex -3.09017 -9.51056 2
      vertex -1.04528 -9.94522 2
    endloop
  endfacet
  facet normal 0.207914 0.978147 0
    outer loop
      vertex -3.09017 -9.51056 2
      vertex -1.04528 -9.94522 0
      vertex -3.09017 -9.51056 0
    endloop
  endfacet
  facet normal -0.207914 -0.978147 0
    outer loop
      vertex 1.04528 9.94522 0
      vertex 3.09017 9.51056 2
      vertex 1.04528 9.94522 2
    endloop
  endfacet
  facet normal -0.207914 -0.978147 -0
    outer loop
      vertex 3.09017 9.51056 2
      vertex 1.04528 9.94522 0
      vertex 3.09017 9.51056 0
    endloop
  endfacet
  facet normal 0.994522 0.104526 0
    outer loop
      vertex -9.78148 -2.07912 2
      vertex -10 0 0
      vertex -10 0 2
    endloop
  endfacet
  facet normal 0.994522 0.104526 0
    outer loop
      vertex -10 0 0
      vertex -9.78148 -2.07912 2
      vertex -9.78148 -2.07912 0
    endloop
  endfacet
  facet normal 0.866026 0.5 0
    outer loop
      vertex -8.09017 -5.87785 2
      vertex -9.13545 -4.06737 0
      vertex -9.13545 -4.06737 2
    endloop
  endfacet
  facet normal 0.866026 0.5 0
    outer loop
      vertex -9.13545 -4.06737 0
      vertex -8.09017 -5.87785 2
      vertex -8.09017 -5.87785 0
    endloop
  endfacet
  facet normal 0.866026 -0.5 0
    outer loop
      vertex -9.13545 4.06737 2
      vertex -8.09017 5.87785 0
      vertex -8.09017 5.87785 2
    endloop
  endfacet
  facet normal 0.866026 -0.5 0
    outer loop
      vertex -8.09017 5.87785 0
      vertex -9.13545 4.06737 2
      vertex -9.13545 4.06737 0
    endloop
  endfacet
  facet normal -0.866026 0.5 0
    outer loop
      vertex 8.09017 -5.87785 0
      vertex 9.13545 -4.06737 2
      vertex 9.13545 -4.06737 0
    endloop
  endfacet
  facet normal -0.866026 0.5 0
    outer loop
      vertex 9.13545 -4.06737 2
      vertex 8.09017 -5.87785 0
      vertex 8.09017 -5.87785 2
    endloop
  endfacet
  facet normal -0.587783 -0.809019 0
    outer loop
      vertex 5 8.66025 0
      vertex 6.69131 7.43145 2
      vertex 5 8.66025 2
    endloop
  endfacet
  facet normal -0.587783 -0.809019 -0
    outer loop
      vertex 6.69131 7.43145 2
      vertex 5 8.66025 0
      vertex 6.69131 7.43145 0
    endloop
  endfacet
  facet normal 0.587783 -0.809019 0
    outer loop
      vertex -6.69131 7.43145 0
      vertex -5 8.66025 2
      vertex -6.69131 7.43145 2
    endloop
  endfacet
  facet normal 0.587783 -0.809019 0
    outer loop
      vertex -5 8.66025 2
      vertex -6.69131 7.43145 0
      vertex -5 8.66025 0
    endloop
  endfacet
  facet normal 0.207914 -0.978147 0
    outer loop
      vertex -3.09017 9.51056 0
      vertex -1.04528 9.94522 2
      vertex -3.09017 9.51056 2
    endloop
  endfacet
  facet normal 0.207914 -0.978147 0
    outer loop
      vertex -1.04528 9.94522 2
      vertex -3.09017 9.51056 0
      vertex -1.04528 9.94522 0
    endloop
  endfacet
  facet normal 0 1 -0
    outer loop
      vertex 1.04528 -9.94522 0
      vertex -1.04528 -9.94522 2
      vertex 1.04528 -9.94522 2
    endloop
  endfacet
  facet normal 0 1 0
    outer loop
      vertex -1.04528 -9.94522 2
      vertex 1.04528 -9.94522 0
      vertex -1.04528 -9.94522 0
    endloop
  endfacet
  facet normal 0.994522 -0.104526 0
    outer loop
      vertex -10 0 2
      vertex -9.78148 2.07912 0
      vertex -9.78148 2.07912 2
    endloop
  endfacet
  facet normal 0.994522 -0.104526 0
    outer loop
      vertex -9.78148 2.07912 0
      vertex -10 0 2
      vertex -10 0 0
    endloop
  endfacet
endsolid OpenSCAD_Model
